<svg width="48" height="48" viewBox="0 0 48 48" fill="none" xmlns="http://www.w3.org/2000/svg">
<mask id="mask0_25_104" style="mask-type:alpha" maskUnits="userSpaceOnUse" x="0" y="0" width="48" height="48">
<rect width="48" height="48" fill="#D9D9D9"/>
</mask>
<g mask="url(#mask0_25_104)">
<path d="M33.5564 40.973C33.3162 40.973 33.0761 40.9439 32.8362 40.8858C32.5963 40.8277 32.3714 40.726 32.1615 40.5807L26.8153 37.4654C26.392 37.2228 26.067 36.8969 25.8402 36.4877C25.6134 36.0784 25.5 35.6312 25.5 35.1461V28.9039C25.5 28.4188 25.6134 27.9717 25.8402 27.5624C26.067 27.1531 26.392 26.8272 26.8153 26.5847L32.1615 23.4693C32.3718 23.324 32.5971 23.2223 32.8375 23.1642C33.0779 23.1061 33.3182 23.077 33.5586 23.077C33.799 23.077 34.031 23.1133 34.2548 23.186C34.4786 23.2586 34.6949 23.3531 34.9038 23.4693L40.2499 26.5847C40.6747 26.8272 41.0084 27.1531 41.2512 27.5624C41.4939 27.9717 41.6153 28.4188 41.6153 28.9039V35.1461C41.6153 35.6312 41.4939 36.0784 41.2512 36.4877C41.0084 36.8969 40.6747 37.2228 40.2499 37.4654L34.9041 40.5833C34.6962 40.7021 34.4796 40.7967 34.2545 40.8673C34.0293 40.9378 33.7966 40.973 33.5564 40.973ZM19.9999 23.3846C18.075 23.3846 16.4271 22.6992 15.0563 21.3284C13.6854 19.9575 13 18.3096 13 16.3847C13 14.4597 13.6854 12.8118 15.0563 11.441C16.4271 10.0701 18.075 9.3847 19.9999 9.3847C21.9249 9.3847 23.5728 10.0701 24.9436 11.441C26.3145 12.8118 26.9999 14.4597 26.9999 16.3847C26.9999 18.3096 26.3145 19.9575 24.9436 21.3284C23.5728 22.6992 21.9249 23.3846 19.9999 23.3846ZM5 35.5769V34.1692C5 33.159 5.2577 32.2442 5.7731 31.425C6.28847 30.6058 7.00768 29.9718 7.93075 29.5231C9.59232 28.6949 11.3872 28.0032 13.3154 27.4481C15.2436 26.893 17.4717 26.6155 19.9999 26.6155H20.5845C20.7461 26.6155 20.9204 26.636 21.1076 26.677C20.9051 27.1488 20.7378 27.6295 20.6057 28.1193C20.4737 28.609 20.3641 29.1077 20.2769 29.6154H19.9999C17.6974 29.6154 15.6589 29.8801 13.8846 30.4096C12.1102 30.9391 10.5846 31.5359 9.30765 32.2C8.85382 32.4436 8.5224 32.7282 8.3134 33.0538C8.10443 33.3795 7.99995 33.7513 7.99995 34.1692V35.6154H20.5999C20.7486 36.123 20.9416 36.6384 21.1788 37.1615C21.416 37.6845 21.6769 38.1691 21.9615 38.6153H8.0384C7.19483 38.6153 6.47755 38.3198 5.88655 37.7288C5.29552 37.1378 5 36.4205 5 35.5769ZM19.9999 20.3847C21.0999 20.3847 22.0416 19.993 22.8249 19.2097C23.6083 18.4263 24 17.4847 24 16.3847C24 15.2847 23.6083 14.343 22.8249 13.5597C22.0416 12.7763 21.0999 12.3847 19.9999 12.3847C18.8999 12.3847 17.9583 12.7763 17.1749 13.5597C16.3916 14.343 15.9999 15.2847 15.9999 16.3847C15.9999 17.4847 16.3916 18.4263 17.1749 19.2097C17.9583 19.993 18.8999 20.3847 19.9999 20.3847ZM28.9923 28.0077L33.5576 30.6616L38.123 28.0077L33.5576 25.3847L28.9923 28.0077ZM34.7499 37.9077L39.2307 35.32V29.8462L34.7499 32.5154V37.9077ZM27.8846 35.3269L32.3653 37.9577V32.5654L27.8846 29.9154V35.3269Z" fill="white"/>
</g>
</svg>
