<svg width="32" height="32" viewBox="0 0 32 32" fill="none" xmlns="http://www.w3.org/2000/svg">
<g clip-path="url(#clip0_25_283)">
<path d="M21.3333 24.001C22.0406 24.001 22.7189 24.2819 23.2189 24.782C23.719 25.2821 24 25.9604 24 26.6676C24 25.9604 24.281 25.2821 24.781 24.782C25.2811 24.2819 25.9594 24.001 26.6667 24.001C25.9594 24.001 25.2811 23.72 24.781 23.2199C24.281 22.7198 24 22.0415 24 21.3343C24 22.0415 23.719 22.7198 23.2189 23.2199C22.7189 23.72 22.0406 24.001 21.3333 24.001ZM21.3333 8.00097C22.0406 8.00097 22.7189 8.28192 23.2189 8.78202C23.719 9.28212 24 9.96039 24 10.6676C24 9.96039 24.281 9.28212 24.781 8.78202C25.2811 8.28192 25.9594 8.00097 26.6667 8.00097C25.9594 8.00097 25.2811 7.72002 24.781 7.21992C24.281 6.71983 24 6.04155 24 5.3343C24 6.04155 23.719 6.71983 23.2189 7.21992C22.7189 7.72002 22.0406 8.00097 21.3333 8.00097ZM12 24.001C12 21.8792 12.8429 19.8444 14.3431 18.3441C15.8434 16.8438 17.8783 16.001 20 16.001C17.8783 16.001 15.8434 15.1581 14.3431 13.6578C12.8429 12.1575 12 10.1227 12 8.00097C12 10.1227 11.1571 12.1575 9.65685 13.6578C8.15656 15.1581 6.12173 16.001 4 16.001C6.12173 16.001 8.15656 16.8438 9.65685 18.3441C11.1571 19.8444 12 21.8792 12 24.001Z" stroke="#23009A" stroke-width="2" stroke-linecap="round" stroke-linejoin="round"/>
</g>
<defs>
<clipPath id="clip0_25_283">
<rect width="32" height="32" fill="white" transform="translate(0 0.000976562)"/>
</clipPath>
</defs>
</svg>
