<svg width="48" height="48" viewBox="0 0 48 48" fill="none" xmlns="http://www.w3.org/2000/svg">
<mask id="mask0_25_43" style="mask-type:alpha" maskUnits="userSpaceOnUse" x="0" y="0" width="48" height="48">
<rect width="48" height="48" fill="#D9D9D9"/>
</mask>
<g mask="url(#mask0_25_43)">
<path d="M33.7998 21.1346C34.228 20.8602 34.4421 20.482 34.4421 20C34.4421 19.518 34.228 19.1398 33.7998 18.8654L25.0884 13.2693C24.6396 12.9616 24.1794 12.9366 23.7076 13.1943C23.2358 13.452 22.9999 13.8552 22.9999 14.4039V25.5961C22.9999 26.1448 23.2358 26.548 23.7076 26.8057C24.1794 27.0634 24.6396 27.0384 25.0884 26.7307L33.7998 21.1346ZM16.1153 35C15.105 35 14.2499 34.65 13.55 33.95C12.85 33.25 12.5 32.3948 12.5 31.3846V8.61546C12.5 7.6052 12.85 6.75006 13.55 6.05006C14.2499 5.35006 15.105 5.00006 16.1153 5.00006H38.8844C39.8947 5.00006 40.7498 5.35006 41.4498 6.05006C42.1498 6.75006 42.4998 7.6052 42.4998 8.61546V31.3846C42.4998 32.3948 42.1498 33.25 41.4498 33.95C40.7498 34.65 39.8947 35 38.8844 35H16.1153ZM16.1153 32H38.8844C39.0383 32 39.1793 31.9359 39.3076 31.8077C39.4358 31.6795 39.4999 31.5384 39.4999 31.3846V8.61546C39.4999 8.4616 39.4358 8.32055 39.3076 8.19231C39.1793 8.06411 39.0383 8.00001 38.8844 8.00001H16.1153C15.9614 8.00001 15.8204 8.06411 15.6922 8.19231C15.564 8.32055 15.4999 8.4616 15.4999 8.61546V31.3846C15.4999 31.5384 15.564 31.6795 15.6922 31.8077C15.8204 31.9359 15.9614 32 16.1153 32ZM9.11535 41.9999C8.10512 41.9999 7.25 41.6499 6.55 40.9499C5.85 40.2499 5.5 39.3947 5.5 38.3845V14.1154C5.5 13.6898 5.64358 13.3334 5.93075 13.0462C6.21795 12.759 6.57435 12.6155 6.99995 12.6155C7.42558 12.6155 7.782 12.759 8.0692 13.0462C8.35637 13.3334 8.49995 13.6898 8.49995 14.1154V38.3845C8.49995 38.5384 8.56405 38.6794 8.69225 38.8076C8.82048 38.9358 8.96152 39 9.11535 39H33.3844C33.8101 39 34.1665 39.1435 34.4537 39.4307C34.7409 39.7179 34.8844 40.0743 34.8844 40.4999C34.8844 40.9255 34.7409 41.2819 34.4537 41.5691C34.1665 41.8563 33.8101 41.9999 33.3844 41.9999H9.11535Z" fill="white"/>
</g>
</svg>
